<?xml version="1.0" encoding="UTF-8"?>
<svg version="1.1" xmlns="http://www.w3.org/2000/svg" width="512" height="512">
<path d="M0 0 C168.96 0 337.92 0 512 0 C512 168.96 512 337.92 512 512 C343.04 512 174.08 512 0 512 C0 343.04 0 174.08 0 0 Z " fill="#000000" transform="translate(0,0)"/>
<path d="M0 0 C31.35 0 62.7 0 95 0 C95 27.39 95 54.78 95 83 C131.3 83 167.6 83 205 83 C205 55.61 205 28.22 205 0 C236.35 0 267.7 0 300 0 C300 55.11 300 110.22 300 167 C201 167 102 167 0 167 C0 111.89 0 56.78 0 0 Z " fill="#FDFDFD" transform="translate(106,239)"/>
<path d="M0 0 C36.3 0 72.6 0 110 0 C110 27.39 110 54.78 110 83 C73.7 83 37.4 83 0 83 C0 55.61 0 28.22 0 0 Z " fill="#FEFEFE" transform="translate(201,107)"/>
</svg>
